<?xml version="1.0" encoding="UTF-8"?>
<svg id="a" data-name="Camada 1" xmlns="http://www.w3.org/2000/svg" viewBox="0 0 200 200">
  <defs>
    <style>
      .b {
        fill: #999;
      }

      .c {
        fill: #24388d;
      }
    </style>
  </defs>
  <g>
    <path class="c" d="M69.86,120.67c-.35,0-.68,0-1.03.03.33.03.68.03,1.03.03s.71,0,1.03-.03c-.35-.03-.68-.03-1.03-.03ZM69.86,130.75c-.33,0-.68,0-1.01.03.33.03.68.03,1.01.03s.68,0,1.01-.03c-.33-.03-.68-.03-1.01-.03Z"/>
    <path class="c" d="M70.89,120.7c-.33.03-.68.03-1.03.03s-.71,0-1.03-.03c.35-.03.68-.03,1.03-.03s.68,0,1.03.03Z"/>
    <path class="c" d="M70.89,120.7c-.33.03-.68.03-1.03.03s-.71,0-1.03-.03c.35-.03.68-.03,1.03-.03s.68,0,1.03.03Z"/>
    <path class="c" d="M70.87,130.77c-.33.03-.68.03-1.01.03s-.68,0-1.01-.03c.33-.03.68-.03,1.01-.03s.68,0,1.01.03Z"/>
    <path class="c" d="M139.69,191.86v.58c0,4.18-3.38,7.56-7.56,7.56H7.56c-4.18,0-7.56-3.38-7.56-7.56v-.58c0-33.43,30.68-60.59,68.72-61.09t.05,0s.05-.03.08,0c.33.03.68.03,1.01.03s.68,0,1.01-.03c.03-.03.05-.03.08,0t.05,0c16.58.23,31.79,5.52,43.63,14.21,15.32,11.19,25.07,28.04,25.07,46.88Z"/>
    <path class="c" d="M70.87,130.77c-.33.03-.68.03-1.01.03s-.68,0-1.01-.03c.33-.03.68-.03,1.01-.03s.68,0,1.01.03Z"/>
  </g>
  <g>
    <path class="c" d="M110.69,79.88c0,6.2-1.39,12.07-3.85,17.33-6.37,13.6-20.03,23.1-35.95,23.48-.35-.03-.68-.03-1.03-.03s-.68,0-1.03.03c-22.09-.53-39.8-18.59-39.8-40.81s18.26-40.84,40.84-40.84c18.21,0,33.66,11.94,38.9,28.42,1.26,3.93,1.94,8.09,1.94,12.42Z"/>
    <path class="b" d="M174.96,84.39c0,19.5-15.8,35.27-35.27,35.27-10.78,0-20.43-4.84-26.88-12.47,5.04-7.91,7.96-17.28,7.96-27.31,0-7.68-1.71-14.99-4.81-21.54,6.25-5.72,14.59-9.2,23.73-9.2,19.47,0,35.27,15.77,35.27,35.24Z"/>
    <path class="b" d="M200,192.97v.5c0,3.6-2.92,6.52-6.52,6.52h-45.45c1.13-2.29,1.74-4.86,1.74-7.56v-.58c0-19.62-8.97-37.44-23.45-50.33,4.31-.88,8.77-1.34,13.38-1.34,33.3,0,60.31,23.63,60.31,52.78Z"/>
  </g>
</svg>