<?xml version="1.0" encoding="UTF-8"?>
<svg id="a" data-name="Camada 1" xmlns="http://www.w3.org/2000/svg" viewBox="0 0 200 200">
  <defs>
    <style>
      .b {
        fill: #b4b4b3;
      }

      .c {
        fill: #24388d;
      }
    </style>
  </defs>
  <path class="c" d="M0,61.49c0-1.9.96-3.66,2.57-4.69,7.85-5.03,24.06-13.6,46.06-13.95,26.43-.41,45.07,11.29,51.37,15.66v141.48c-10.46-4.05-27.35-9.13-48.63-9.34-18.19-.18-33.33,3.26-44.15,6.77C3.65,198.59,0,195.9,0,192.14V61.49Z"/>
  <path class="b" d="M200,61.49c0-1.9-.96-3.66-2.57-4.69-7.85-5.03-24.06-13.6-46.06-13.95-26.43-.41-45.07,11.29-51.37,15.66v141.48c10.46-4.05,27.35-9.13,48.63-9.34,18.19-.18,33.33,3.26,44.15,6.77,3.58,1.16,7.23-1.54,7.23-5.29V61.49Z"/>
</svg>