<?xml version="1.0" encoding="UTF-8"?>
<svg id="a" data-name="Camada 1" xmlns="http://www.w3.org/2000/svg" viewBox="0 0 200 200">
  <defs>
    <style>
      .b {
        fill: #24378d;
      }

      .c {
        fill: #263688;
      }

      .d {
        fill: #999;
      }
    </style>
  </defs>
  <path class="c" d="M99.99,62.05v137.95l-69.5-15.36c-8.55-1.89-14.64-9.47-14.64-18.23v-92.73c0-11.11,9.65-19.77,20.7-18.56l63.45,6.93Z"/>
  <path class="b" d="M99.99,62.05v135.45s0,2.51,0,2.51l69.5-15.36c8.55-1.89,14.64-9.47,14.64-18.23v-92.73c0-11.11-9.65-19.77-20.7-18.56l-63.45,6.93Z"/>
  <path class="d" d="M100.01,62.06l-27.1,45.61c-2.44,4.11-7.33,6.1-11.95,4.85l-53.06-14.3c-6.5-1.75-9.78-9.02-6.78-15.05l13.12-26.41c1.51-3.04,4.78-4.8,8.15-4.38l77.61,9.67Z"/>
  <path class="d" d="M99.99,62.06l27.1,45.61c2.44,4.11,7.33,6.1,11.95,4.85l53.06-14.3c6.5-1.75,9.78-9.02,6.78-15.05l-13.12-26.41c-1.51-3.04-4.78-4.8-8.15-4.38l-77.61,9.67Z"/>
</svg>