<?xml version="1.0" encoding="UTF-8"?>
<svg id="a" data-name="Camada 1" xmlns="http://www.w3.org/2000/svg" viewBox="0 0 200 200">
  <defs>
    <style>
      .b {
        fill: #999;
      }

      .c {
        fill: #24388d;
      }
    </style>
  </defs>
  <path class="c" d="M149.02,141.55c7.03-11.17,11.09-24.38,11.09-38.53,0-40.07-32.48-72.54-72.54-72.54S15.05,62.95,15.05,103.01s32.48,72.52,72.52,72.52c14.87,0,28.67-4.45,40.17-12.11l57.21,36.05-35.93-57.93ZM87.57,145.12c-23.25,0-42.11-18.86-42.11-42.11s18.86-42.11,42.11-42.11,42.14,18.86,42.14,42.11-18.86,42.11-42.14,42.11Z"/>
  <path class="b" d="M120.61,103.01c0,18.24-14.79,33.01-33.04,33.01s-33.01-14.77-33.01-33.01,14.79-33.01,33.01-33.01,33.04,14.77,33.04,33.01Z"/>
</svg>