<?xml version="1.0" encoding="UTF-8"?>
<svg id="a" data-name="Camada 1" xmlns="http://www.w3.org/2000/svg" viewBox="0 0 200 200">
  <defs>
    <style>
      .b {
        fill: #999;
      }

      .c {
        fill: #24388d;
      }
    </style>
  </defs>
  <g>
    <path class="b" d="M54.14,89.44v86.55c0,2.23-1.34,4.25-3.41,5.14l-42.95,18.41c-3.69,1.59-7.79-1.12-7.79-5.14v-100.07c0-2.29,1.4-4.33,3.52-5.19l42.95-17.23c.87-.36,1.76-.47,2.63-.39h.03c.95,6.2,2.71,12.2,5.03,17.93Z"/>
    <path class="b" d="M199.99,70.81v98.92c0,2.23-1.34,4.25-3.41,5.14l-42.95,18.41c-3.69,1.56-7.79-1.12-7.79-5.14v-98.45c.81-1.98,1.54-4.02,2.18-6.06.39-.31.87-.56,1.34-.75l42.95-17.23c3.66-1.48,7.68,1.23,7.68,5.17Z"/>
    <path class="b" d="M132.57,113.79v78.4c0,4.02-4.92,6.73-9.36,5.14l-51.75-18.41c-2.46-.89-4.08-2.9-4.08-5.14v-60.27c11.59,16.59,24.35,27.65,25.33,28.49,2.09,1.82,4.69,2.71,7.26,2.71s5.19-.89,7.29-2.71c2.37-2.04,14.36-12.65,25.3-28.21Z"/>
  </g>
  <path class="c" d="M97.26,20.93c-20.08,1.31-37.54,19.66-37.79,39.77-.14,10.64,3.13,21.2,7.9,30.92,9.94,20.22,26.45,36.64,32.59,41.92,6.14-5.28,22.65-21.31,32.59-41.5,4.69-9.52,7.93-20,7.93-30.69,0-23.26-19.63-41.95-43.23-40.41ZM116.14,65.14c-1.37,6.09-6.28,11-12.37,12.34-.92.2-1.82.34-2.71.36-4.55.31-8.74-1.23-11.9-3.97-4.38-3.77-6.79-9.83-5.33-16.34,1.34-6.09,6.26-11,12.37-12.34,12.07-2.68,22.62,7.85,19.94,19.94Z"/>
</svg>